<svg width="1288" height="280" viewBox="0 0 1288 280" fill="none" xmlns="http://www.w3.org/2000/svg">
<g clip-path="url(#clip0_282_5320)">
<rect width="1288" height="280" rx="16" fill="#FFE9DB"/>
<path d="M104.763 149.119C96.4014 134.703 84.8684 120.575 66.704 119.71C48.8279 118.845 34.4116 134.127 30.9517 150.849C26.6269 172.474 37.8715 193.233 47.9629 211.398C53.7294 222.066 60.3608 232.157 67.2806 242.248C74.4888 252.628 81.4085 263.873 77.9486 276.847C77.372 279.442 80.8319 280.884 82.2735 278.866C90.9232 265.603 84.2918 250.61 77.6603 237.923C68.1456 220.047 56.901 203.324 49.4045 184.583C43.3497 169.302 39.0248 148.254 54.8827 137.01C73.6238 123.459 89.4816 148.831 96.6897 162.671C98.708 166.707 104.186 166.996 107.358 164.112C115.143 156.904 131 148.831 139.073 159.787C146.57 169.879 139.65 182.565 132.442 190.35C125.522 197.558 117.449 202.748 109.953 208.803C100.726 216.299 92.6532 224.66 86.3101 234.752C80.8319 243.402 94.6715 251.475 100.15 242.825C116.007 218.317 154.066 205.343 156.085 173.05C156.95 160.364 150.895 147.389 138.497 142.776C126.675 138.163 114.566 142.2 104.763 149.119Z" fill="#FF914D"/>
<path d="M186.648 150.849C192.991 144.795 196.162 135.568 201.064 128.36C206.254 120.575 212.308 113.656 218.94 107.024C231.626 94.3378 247.196 85.1114 250.367 66.082C252.674 52.2424 247.196 35.5196 233.356 29.7531C219.517 24.2749 210.578 32.9247 201.64 41.8627C196.451 33.213 189.242 25.4282 179.151 23.4099C165.6 20.815 153.202 30.9064 149.165 43.3043C144.264 58.0089 150.319 73.5784 155.797 87.1297C162.717 104.717 169.06 124.035 178.574 140.47C178.863 140.758 178.863 141.046 179.151 141.335C178.574 143.353 177.998 145.371 177.709 147.389C177.133 152.003 183.764 153.733 186.648 150.849ZM161.852 66.6586C159.257 55.9906 158.968 37.8262 173.385 35.8079C184.053 34.3663 190.396 47.0526 194.721 55.1256C196.739 58.8739 201.64 59.1622 204.524 56.2789C212.597 49.0708 224.13 31.483 234.798 46.4759C244.889 60.8921 233.644 77.0383 222.976 86.553C212.885 95.2028 203.659 103.852 195.586 114.521C192.126 118.845 188.377 123.747 185.206 128.937C178.863 107.889 167.33 87.9946 161.852 66.6586Z" fill="#FF914D"/>
<path d="M343.536 110.768V131H337.38V110.768H330.18V105.512H350.736V110.768H343.536ZM361.616 117.896C361.352 117.824 361.088 117.776 360.824 117.752C360.584 117.728 360.344 117.716 360.104 117.716C359.312 117.716 358.64 117.86 358.088 118.148C357.56 118.436 357.128 118.784 356.792 119.192C356.48 119.6 356.252 120.044 356.108 120.524C355.964 121.004 355.892 121.424 355.892 121.784V131H349.988V113.072H355.676V115.664H355.748C356.204 114.752 356.852 114.008 357.692 113.432C358.532 112.856 359.504 112.568 360.608 112.568C360.848 112.568 361.076 112.58 361.292 112.604C361.532 112.628 361.724 112.664 361.868 112.712L361.616 117.896ZM375.976 119.984C375.976 119.048 375.676 118.244 375.076 117.572C374.5 116.9 373.624 116.564 372.448 116.564C371.872 116.564 371.344 116.66 370.864 116.852C370.384 117.02 369.964 117.26 369.604 117.572C369.244 117.884 368.956 118.256 368.74 118.688C368.524 119.096 368.404 119.528 368.38 119.984H375.976ZM381.412 122.252C381.412 122.492 381.412 122.732 381.412 122.972C381.412 123.212 381.4 123.44 381.376 123.656H368.38C368.428 124.16 368.572 124.616 368.812 125.024C369.076 125.432 369.4 125.792 369.784 126.104C370.192 126.392 370.636 126.62 371.116 126.788C371.62 126.956 372.136 127.04 372.664 127.04C373.6 127.04 374.392 126.872 375.04 126.536C375.688 126.176 376.216 125.72 376.624 125.168L380.728 127.76C379.888 128.984 378.772 129.932 377.38 130.604C376.012 131.252 374.416 131.576 372.592 131.576C371.248 131.576 369.976 131.372 368.776 130.964C367.576 130.532 366.52 129.92 365.608 129.128C364.72 128.312 364.012 127.316 363.484 126.14C362.98 124.964 362.728 123.62 362.728 122.108C362.728 120.644 362.98 119.324 363.484 118.148C363.988 116.948 364.672 115.94 365.536 115.124C366.4 114.284 367.42 113.636 368.596 113.18C369.772 112.724 371.044 112.496 372.412 112.496C373.732 112.496 374.944 112.724 376.048 113.18C377.152 113.612 378.1 114.248 378.892 115.088C379.684 115.928 380.296 116.948 380.728 118.148C381.184 119.348 381.412 120.716 381.412 122.252ZM395.447 123.188H394.691C394.043 123.188 393.383 123.224 392.711 123.296C392.063 123.344 391.475 123.452 390.947 123.62C390.443 123.788 390.023 124.04 389.687 124.376C389.351 124.688 389.183 125.108 389.183 125.636C389.183 125.972 389.255 126.26 389.399 126.5C389.567 126.74 389.771 126.932 390.011 127.076C390.251 127.22 390.527 127.328 390.839 127.4C391.151 127.448 391.451 127.472 391.739 127.472C392.939 127.472 393.851 127.148 394.475 126.5C395.123 125.828 395.447 124.928 395.447 123.8V123.188ZM384.611 115.52C385.667 114.512 386.891 113.756 388.283 113.252C389.699 112.748 391.139 112.496 392.603 112.496C394.115 112.496 395.387 112.688 396.419 113.072C397.475 113.432 398.327 114.008 398.975 114.8C399.623 115.568 400.091 116.552 400.379 117.752C400.691 118.928 400.847 120.332 400.847 121.964V131H395.447V129.092H395.339C394.883 129.836 394.187 130.412 393.251 130.82C392.339 131.228 391.343 131.432 390.263 131.432C389.543 131.432 388.799 131.336 388.031 131.144C387.263 130.952 386.555 130.64 385.907 130.208C385.283 129.776 384.767 129.2 384.359 128.48C383.951 127.76 383.747 126.872 383.747 125.816C383.747 124.52 384.095 123.476 384.791 122.684C385.511 121.892 386.423 121.28 387.527 120.848C388.655 120.416 389.903 120.128 391.271 119.984C392.639 119.84 393.971 119.768 395.267 119.768V119.48C395.267 118.592 394.955 117.944 394.331 117.536C393.707 117.104 392.939 116.888 392.027 116.888C391.187 116.888 390.371 117.068 389.579 117.428C388.811 117.788 388.151 118.22 387.599 118.724L384.611 115.52ZM411.31 117.5V124.34C411.31 125.18 411.466 125.816 411.778 126.248C412.114 126.656 412.702 126.86 413.542 126.86C413.83 126.86 414.13 126.836 414.442 126.788C414.778 126.74 415.054 126.668 415.27 126.572L415.342 130.892C414.934 131.036 414.418 131.156 413.794 131.252C413.17 131.372 412.546 131.432 411.922 131.432C410.722 131.432 409.714 131.288 408.898 131C408.082 130.688 407.422 130.256 406.918 129.704C406.438 129.128 406.09 128.456 405.874 127.688C405.658 126.896 405.55 126.02 405.55 125.06V117.5H402.67V113.072H405.514V108.356H411.31V113.072H415.522V117.5H411.31ZM437.412 133.7C437.052 134.636 436.644 135.464 436.188 136.184C435.756 136.928 435.228 137.552 434.604 138.056C434.004 138.584 433.284 138.98 432.444 139.244C431.628 139.508 430.656 139.64 429.528 139.64C428.976 139.64 428.4 139.604 427.8 139.532C427.224 139.46 426.72 139.364 426.288 139.244L426.936 134.276C427.224 134.372 427.536 134.444 427.872 134.492C428.232 134.564 428.556 134.6 428.844 134.6C429.756 134.6 430.416 134.384 430.824 133.952C431.232 133.544 431.58 132.956 431.868 132.188L432.444 130.712L424.956 113.072H431.508L435.504 124.592H435.612L439.176 113.072H445.44L437.412 133.7ZM466.73 121.964C466.73 123.428 466.466 124.76 465.938 125.96C465.41 127.136 464.69 128.144 463.778 128.984C462.866 129.8 461.81 130.436 460.61 130.892C459.41 131.348 458.126 131.576 456.758 131.576C455.414 131.576 454.13 131.348 452.906 130.892C451.706 130.436 450.65 129.8 449.738 128.984C448.85 128.144 448.142 127.136 447.614 125.96C447.086 124.76 446.822 123.428 446.822 121.964C446.822 120.5 447.086 119.18 447.614 118.004C448.142 116.828 448.85 115.832 449.738 115.016C450.65 114.2 451.706 113.576 452.906 113.144C454.13 112.712 455.414 112.496 456.758 112.496C458.126 112.496 459.41 112.712 460.61 113.144C461.81 113.576 462.866 114.2 463.778 115.016C464.69 115.832 465.41 116.828 465.938 118.004C466.466 119.18 466.73 120.5 466.73 121.964ZM461.042 121.964C461.042 121.388 460.946 120.824 460.754 120.272C460.562 119.72 460.286 119.24 459.926 118.832C459.566 118.4 459.122 118.052 458.594 117.788C458.066 117.524 457.454 117.392 456.758 117.392C456.062 117.392 455.45 117.524 454.922 117.788C454.394 118.052 453.95 118.4 453.59 118.832C453.254 119.24 452.99 119.72 452.798 120.272C452.63 120.824 452.546 121.388 452.546 121.964C452.546 122.54 452.63 123.104 452.798 123.656C452.99 124.208 453.266 124.712 453.626 125.168C453.986 125.6 454.43 125.948 454.958 126.212C455.486 126.476 456.098 126.608 456.794 126.608C457.49 126.608 458.102 126.476 458.63 126.212C459.158 125.948 459.602 125.6 459.962 125.168C460.322 124.712 460.586 124.208 460.754 123.656C460.946 123.104 461.042 122.54 461.042 121.964ZM482.276 131V128.516H482.204C481.988 128.924 481.7 129.308 481.34 129.668C481.004 130.028 480.596 130.34 480.116 130.604C479.66 130.868 479.144 131.084 478.568 131.252C478.016 131.42 477.428 131.504 476.804 131.504C475.604 131.504 474.584 131.288 473.744 130.856C472.928 130.424 472.256 129.872 471.728 129.2C471.224 128.504 470.852 127.724 470.612 126.86C470.396 125.972 470.288 125.072 470.288 124.16V113.072H476.228V122.792C476.228 123.296 476.264 123.776 476.336 124.232C476.408 124.688 476.54 125.096 476.732 125.456C476.948 125.816 477.224 126.104 477.56 126.32C477.896 126.512 478.34 126.608 478.892 126.608C479.924 126.608 480.704 126.224 481.232 125.456C481.784 124.688 482.06 123.788 482.06 122.756V113.072H487.964V131H482.276ZM504.209 117.896C503.945 117.824 503.681 117.776 503.417 117.752C503.177 117.728 502.937 117.716 502.697 117.716C501.905 117.716 501.233 117.86 500.681 118.148C500.153 118.436 499.721 118.784 499.385 119.192C499.073 119.6 498.845 120.044 498.701 120.524C498.557 121.004 498.485 121.424 498.485 121.784V131H492.581V113.072H498.269V115.664H498.341C498.797 114.752 499.445 114.008 500.285 113.432C501.125 112.856 502.097 112.568 503.201 112.568C503.441 112.568 503.669 112.58 503.885 112.604C504.125 112.628 504.317 112.664 504.461 112.712L504.209 117.896ZM538.751 131V121.208C538.751 120.704 538.715 120.224 538.643 119.768C538.571 119.288 538.439 118.88 538.247 118.544C538.055 118.208 537.791 117.944 537.455 117.752C537.143 117.536 536.723 117.428 536.195 117.428C535.691 117.428 535.247 117.536 534.863 117.752C534.503 117.968 534.191 118.256 533.927 118.616C533.687 118.976 533.507 119.396 533.387 119.876C533.267 120.332 533.207 120.812 533.207 121.316V131H527.303V120.776C527.303 119.744 527.099 118.928 526.691 118.328C526.283 117.728 525.635 117.428 524.747 117.428C523.811 117.428 523.079 117.8 522.551 118.544C522.047 119.288 521.795 120.2 521.795 121.28V131H515.855V113.072H521.579V115.556H521.651C521.867 115.172 522.131 114.8 522.443 114.44C522.779 114.08 523.175 113.768 523.631 113.504C524.087 113.216 524.591 112.988 525.143 112.82C525.719 112.652 526.343 112.568 527.015 112.568C528.311 112.568 529.403 112.832 530.291 113.36C531.203 113.888 531.911 114.644 532.415 115.628C533.015 114.692 533.783 113.948 534.719 113.396C535.655 112.844 536.795 112.568 538.139 112.568C539.363 112.568 540.383 112.796 541.199 113.252C542.039 113.684 542.711 114.26 543.215 114.98C543.719 115.676 544.079 116.468 544.295 117.356C544.535 118.22 544.655 119.072 544.655 119.912V131H538.751ZM568.121 121.964C568.121 123.428 567.857 124.76 567.329 125.96C566.801 127.136 566.081 128.144 565.169 128.984C564.257 129.8 563.201 130.436 562.001 130.892C560.801 131.348 559.517 131.576 558.149 131.576C556.805 131.576 555.521 131.348 554.297 130.892C553.097 130.436 552.041 129.8 551.129 128.984C550.241 128.144 549.533 127.136 549.005 125.96C548.477 124.76 548.213 123.428 548.213 121.964C548.213 120.5 548.477 119.18 549.005 118.004C549.533 116.828 550.241 115.832 551.129 115.016C552.041 114.2 553.097 113.576 554.297 113.144C555.521 112.712 556.805 112.496 558.149 112.496C559.517 112.496 560.801 112.712 562.001 113.144C563.201 113.576 564.257 114.2 565.169 115.016C566.081 115.832 566.801 116.828 567.329 118.004C567.857 119.18 568.121 120.5 568.121 121.964ZM562.433 121.964C562.433 121.388 562.337 120.824 562.145 120.272C561.953 119.72 561.677 119.24 561.317 118.832C560.957 118.4 560.513 118.052 559.985 117.788C559.457 117.524 558.845 117.392 558.149 117.392C557.453 117.392 556.841 117.524 556.313 117.788C555.785 118.052 555.341 118.4 554.981 118.832C554.645 119.24 554.381 119.72 554.189 120.272C554.021 120.824 553.937 121.388 553.937 121.964C553.937 122.54 554.021 123.104 554.189 123.656C554.381 124.208 554.657 124.712 555.017 125.168C555.377 125.6 555.821 125.948 556.349 126.212C556.877 126.476 557.489 126.608 558.185 126.608C558.881 126.608 559.493 126.476 560.021 126.212C560.549 125.948 560.993 125.6 561.353 125.168C561.713 124.712 561.977 124.208 562.145 123.656C562.337 123.104 562.433 122.54 562.433 121.964ZM594.755 131V121.208C594.755 120.704 594.719 120.224 594.647 119.768C594.575 119.288 594.443 118.88 594.251 118.544C594.059 118.208 593.795 117.944 593.459 117.752C593.147 117.536 592.727 117.428 592.199 117.428C591.695 117.428 591.251 117.536 590.867 117.752C590.507 117.968 590.195 118.256 589.931 118.616C589.691 118.976 589.511 119.396 589.391 119.876C589.271 120.332 589.211 120.812 589.211 121.316V131H583.307V120.776C583.307 119.744 583.103 118.928 582.695 118.328C582.287 117.728 581.639 117.428 580.751 117.428C579.815 117.428 579.083 117.8 578.555 118.544C578.051 119.288 577.799 120.2 577.799 121.28V131H571.859V113.072H577.583V115.556H577.655C577.871 115.172 578.135 114.8 578.447 114.44C578.783 114.08 579.179 113.768 579.635 113.504C580.091 113.216 580.595 112.988 581.147 112.82C581.723 112.652 582.347 112.568 583.019 112.568C584.315 112.568 585.407 112.832 586.295 113.36C587.207 113.888 587.915 114.644 588.419 115.628C589.019 114.692 589.787 113.948 590.723 113.396C591.659 112.844 592.799 112.568 594.143 112.568C595.367 112.568 596.387 112.796 597.203 113.252C598.043 113.684 598.715 114.26 599.219 114.98C599.723 115.676 600.083 116.468 600.299 117.356C600.539 118.22 600.659 119.072 600.659 119.912V131H594.755ZM625.241 108.14C625.025 108.068 624.773 108.008 624.485 107.96C624.197 107.912 623.909 107.888 623.621 107.888C623.069 107.888 622.625 107.984 622.289 108.176C621.953 108.368 621.689 108.632 621.497 108.968C621.305 109.28 621.173 109.64 621.101 110.048C621.029 110.456 620.993 110.864 620.993 111.272V113.072H624.989V117.5H620.993V131H615.089V117.5H611.812V113.072H615.089V111.344C615.089 110.24 615.209 109.196 615.449 108.212C615.689 107.204 616.097 106.328 616.673 105.584C617.273 104.816 618.065 104.216 619.049 103.784C620.057 103.328 621.305 103.1 622.793 103.1C623.297 103.1 623.789 103.136 624.269 103.208C624.773 103.256 625.229 103.34 625.637 103.46L625.241 108.14ZM646.238 121.964C646.238 123.428 645.974 124.76 645.446 125.96C644.918 127.136 644.198 128.144 643.286 128.984C642.374 129.8 641.318 130.436 640.118 130.892C638.918 131.348 637.634 131.576 636.266 131.576C634.922 131.576 633.638 131.348 632.414 130.892C631.214 130.436 630.158 129.8 629.246 128.984C628.358 128.144 627.65 127.136 627.122 125.96C626.594 124.76 626.33 123.428 626.33 121.964C626.33 120.5 626.594 119.18 627.122 118.004C627.65 116.828 628.358 115.832 629.246 115.016C630.158 114.2 631.214 113.576 632.414 113.144C633.638 112.712 634.922 112.496 636.266 112.496C637.634 112.496 638.918 112.712 640.118 113.144C641.318 113.576 642.374 114.2 643.286 115.016C644.198 115.832 644.918 116.828 645.446 118.004C645.974 119.18 646.238 120.5 646.238 121.964ZM640.55 121.964C640.55 121.388 640.454 120.824 640.262 120.272C640.07 119.72 639.794 119.24 639.434 118.832C639.074 118.4 638.63 118.052 638.102 117.788C637.574 117.524 636.962 117.392 636.266 117.392C635.57 117.392 634.958 117.524 634.43 117.788C633.902 118.052 633.458 118.4 633.098 118.832C632.762 119.24 632.498 119.72 632.306 120.272C632.138 120.824 632.054 121.388 632.054 121.964C632.054 122.54 632.138 123.104 632.306 123.656C632.498 124.208 632.774 124.712 633.134 125.168C633.494 125.6 633.938 125.948 634.466 126.212C634.994 126.476 635.606 126.608 636.302 126.608C636.998 126.608 637.61 126.476 638.138 126.212C638.666 125.948 639.11 125.6 639.47 125.168C639.83 124.712 640.094 124.208 640.262 123.656C640.454 123.104 640.55 122.54 640.55 121.964ZM661.604 117.896C661.34 117.824 661.076 117.776 660.812 117.752C660.572 117.728 660.332 117.716 660.092 117.716C659.3 117.716 658.628 117.86 658.076 118.148C657.548 118.436 657.116 118.784 656.78 119.192C656.468 119.6 656.24 120.044 656.096 120.524C655.952 121.004 655.88 121.424 655.88 121.784V131H649.976V113.072H655.664V115.664H655.736C656.192 114.752 656.84 114.008 657.68 113.432C658.52 112.856 659.492 112.568 660.596 112.568C660.836 112.568 661.064 112.58 661.28 112.604C661.52 112.628 661.712 112.664 661.856 112.712L661.604 117.896ZM696.685 131L696.829 112.964H696.721L690.097 131H685.777L679.333 112.964H679.225L679.369 131H673.573V105.512H682.321L688.117 121.856H688.261L693.805 105.512H702.697V131H696.685ZM726.64 121.964C726.64 123.428 726.376 124.76 725.848 125.96C725.32 127.136 724.6 128.144 723.688 128.984C722.776 129.8 721.72 130.436 720.52 130.892C719.32 131.348 718.036 131.576 716.668 131.576C715.324 131.576 714.04 131.348 712.816 130.892C711.616 130.436 710.56 129.8 709.648 128.984C708.76 128.144 708.052 127.136 707.524 125.96C706.996 124.76 706.732 123.428 706.732 121.964C706.732 120.5 706.996 119.18 707.524 118.004C708.052 116.828 708.76 115.832 709.648 115.016C710.56 114.2 711.616 113.576 712.816 113.144C714.04 112.712 715.324 112.496 716.668 112.496C718.036 112.496 719.32 112.712 720.52 113.144C721.72 113.576 722.776 114.2 723.688 115.016C724.6 115.832 725.32 116.828 725.848 118.004C726.376 119.18 726.64 120.5 726.64 121.964ZM720.952 121.964C720.952 121.388 720.856 120.824 720.664 120.272C720.472 119.72 720.196 119.24 719.836 118.832C719.476 118.4 719.032 118.052 718.504 117.788C717.976 117.524 717.364 117.392 716.668 117.392C715.972 117.392 715.36 117.524 714.832 117.788C714.304 118.052 713.86 118.4 713.5 118.832C713.164 119.24 712.9 119.72 712.708 120.272C712.54 120.824 712.456 121.388 712.456 121.964C712.456 122.54 712.54 123.104 712.708 123.656C712.9 124.208 713.176 124.712 713.536 125.168C713.896 125.6 714.34 125.948 714.868 126.212C715.396 126.476 716.008 126.608 716.704 126.608C717.4 126.608 718.012 126.476 718.54 126.212C719.068 125.948 719.512 125.6 719.872 125.168C720.232 124.712 720.496 124.208 720.664 123.656C720.856 123.104 720.952 122.54 720.952 121.964ZM736.786 117.5V124.34C736.786 125.18 736.942 125.816 737.254 126.248C737.59 126.656 738.178 126.86 739.018 126.86C739.306 126.86 739.606 126.836 739.918 126.788C740.254 126.74 740.53 126.668 740.746 126.572L740.818 130.892C740.41 131.036 739.894 131.156 739.27 131.252C738.646 131.372 738.022 131.432 737.398 131.432C736.198 131.432 735.19 131.288 734.374 131C733.558 130.688 732.898 130.256 732.394 129.704C731.914 129.128 731.566 128.456 731.35 127.688C731.134 126.896 731.026 126.02 731.026 125.06V117.5H728.146V113.072H730.99V108.356H736.786V113.072H740.998V117.5H736.786ZM755.581 131V121.28C755.581 120.776 755.545 120.296 755.473 119.84C755.401 119.384 755.257 118.988 755.041 118.652C754.849 118.292 754.585 118.016 754.249 117.824C753.913 117.608 753.481 117.5 752.953 117.5C751.921 117.5 751.129 117.872 750.577 118.616C750.025 119.336 749.749 120.236 749.749 121.316V131H743.845V103.784H749.749V115.34H749.821C750.229 114.62 750.877 113.984 751.765 113.432C752.653 112.856 753.721 112.568 754.969 112.568C756.193 112.568 757.213 112.784 758.029 113.216C758.869 113.648 759.541 114.212 760.045 114.908C760.573 115.58 760.945 116.36 761.161 117.248C761.401 118.136 761.521 119.024 761.521 119.912V131H755.581ZM778.34 119.984C778.34 119.048 778.04 118.244 777.44 117.572C776.864 116.9 775.988 116.564 774.812 116.564C774.236 116.564 773.708 116.66 773.228 116.852C772.748 117.02 772.328 117.26 771.968 117.572C771.608 117.884 771.32 118.256 771.104 118.688C770.888 119.096 770.768 119.528 770.744 119.984H778.34ZM783.776 122.252C783.776 122.492 783.776 122.732 783.776 122.972C783.776 123.212 783.764 123.44 783.74 123.656H770.744C770.792 124.16 770.936 124.616 771.176 125.024C771.44 125.432 771.764 125.792 772.148 126.104C772.556 126.392 773 126.62 773.48 126.788C773.984 126.956 774.5 127.04 775.028 127.04C775.964 127.04 776.756 126.872 777.404 126.536C778.052 126.176 778.58 125.72 778.988 125.168L783.092 127.76C782.252 128.984 781.136 129.932 779.744 130.604C778.376 131.252 776.78 131.576 774.956 131.576C773.612 131.576 772.34 131.372 771.14 130.964C769.94 130.532 768.884 129.92 767.972 129.128C767.084 128.312 766.376 127.316 765.848 126.14C765.344 124.964 765.092 123.62 765.092 122.108C765.092 120.644 765.344 119.324 765.848 118.148C766.352 116.948 767.036 115.94 767.9 115.124C768.764 114.284 769.784 113.636 770.96 113.18C772.136 112.724 773.408 112.496 774.776 112.496C776.096 112.496 777.308 112.724 778.412 113.18C779.516 113.612 780.464 114.248 781.256 115.088C782.048 115.928 782.66 116.948 783.092 118.148C783.548 119.348 783.776 120.716 783.776 122.252ZM799.065 117.896C798.801 117.824 798.537 117.776 798.273 117.752C798.033 117.728 797.793 117.716 797.553 117.716C796.761 117.716 796.089 117.86 795.537 118.148C795.009 118.436 794.577 118.784 794.241 119.192C793.929 119.6 793.701 120.044 793.557 120.524C793.413 121.004 793.341 121.424 793.341 121.784V131H787.437V113.072H793.125V115.664H793.197C793.653 114.752 794.301 114.008 795.141 113.432C795.981 112.856 796.953 112.568 798.057 112.568C798.297 112.568 798.525 112.58 798.741 112.604C798.981 112.628 799.173 112.664 799.317 112.712L799.065 117.896ZM806.297 115.268H801.761L804.353 105.512H809.573L806.297 115.268ZM822.207 118.364C821.727 117.908 821.163 117.524 820.515 117.212C819.867 116.9 819.183 116.744 818.463 116.744C817.911 116.744 817.395 116.852 816.915 117.068C816.459 117.284 816.231 117.656 816.231 118.184C816.231 118.688 816.483 119.048 816.987 119.264C817.515 119.48 818.355 119.72 819.507 119.984C820.179 120.128 820.851 120.332 821.523 120.596C822.219 120.86 822.843 121.208 823.395 121.64C823.947 122.072 824.391 122.6 824.727 123.224C825.063 123.848 825.231 124.592 825.231 125.456C825.231 126.584 825.003 127.544 824.547 128.336C824.091 129.104 823.491 129.728 822.747 130.208C822.027 130.688 821.211 131.036 820.299 131.252C819.387 131.468 818.475 131.576 817.563 131.576C816.099 131.576 814.659 131.348 813.243 130.892C811.851 130.412 810.687 129.716 809.751 128.804L813.063 125.312C813.591 125.888 814.239 126.368 815.007 126.752C815.775 127.136 816.591 127.328 817.455 127.328C817.935 127.328 818.403 127.22 818.859 127.004C819.339 126.764 819.579 126.356 819.579 125.78C819.579 125.228 819.291 124.82 818.715 124.556C818.139 124.292 817.239 124.016 816.015 123.728C815.391 123.584 814.767 123.392 814.143 123.152C813.519 122.912 812.955 122.588 812.451 122.18C811.971 121.772 811.575 121.268 811.263 120.668C810.951 120.068 810.795 119.348 810.795 118.508C810.795 117.428 811.023 116.516 811.479 115.772C811.935 115.004 812.523 114.38 813.243 113.9C813.963 113.42 814.755 113.072 815.619 112.856C816.507 112.616 817.383 112.496 818.247 112.496C819.591 112.496 820.899 112.712 822.171 113.144C823.467 113.552 824.559 114.176 825.447 115.016L822.207 118.364ZM861.76 118.184C861.76 120.416 861.34 122.348 860.5 123.98C859.684 125.588 858.592 126.92 857.224 127.976C855.88 129.008 854.356 129.776 852.652 130.28C850.948 130.76 849.22 131 847.468 131H837.964V105.512H847.18C848.98 105.512 850.756 105.728 852.508 106.16C854.26 106.568 855.82 107.264 857.188 108.248C858.556 109.208 859.66 110.504 860.5 112.136C861.34 113.768 861.76 115.784 861.76 118.184ZM855.352 118.184C855.352 116.744 855.112 115.556 854.632 114.62C854.176 113.66 853.552 112.904 852.76 112.352C851.992 111.776 851.104 111.368 850.096 111.128C849.112 110.888 848.092 110.768 847.036 110.768H843.976V125.672H846.892C847.996 125.672 849.052 125.552 850.06 125.312C851.092 125.048 851.992 124.628 852.76 124.052C853.552 123.476 854.176 122.708 854.632 121.748C855.112 120.788 855.352 119.6 855.352 118.184ZM876.103 123.188H875.347C874.699 123.188 874.039 123.224 873.367 123.296C872.719 123.344 872.131 123.452 871.603 123.62C871.099 123.788 870.679 124.04 870.343 124.376C870.007 124.688 869.839 125.108 869.839 125.636C869.839 125.972 869.911 126.26 870.055 126.5C870.223 126.74 870.427 126.932 870.667 127.076C870.907 127.22 871.183 127.328 871.495 127.4C871.807 127.448 872.107 127.472 872.395 127.472C873.595 127.472 874.507 127.148 875.131 126.5C875.779 125.828 876.103 124.928 876.103 123.8V123.188ZM865.267 115.52C866.323 114.512 867.547 113.756 868.939 113.252C870.355 112.748 871.795 112.496 873.259 112.496C874.771 112.496 876.043 112.688 877.075 113.072C878.131 113.432 878.983 114.008 879.631 114.8C880.279 115.568 880.747 116.552 881.035 117.752C881.347 118.928 881.503 120.332 881.503 121.964V131H876.103V129.092H875.995C875.539 129.836 874.843 130.412 873.907 130.82C872.995 131.228 871.999 131.432 870.919 131.432C870.199 131.432 869.455 131.336 868.687 131.144C867.919 130.952 867.211 130.64 866.563 130.208C865.939 129.776 865.423 129.2 865.015 128.48C864.607 127.76 864.403 126.872 864.403 125.816C864.403 124.52 864.751 123.476 865.447 122.684C866.167 121.892 867.079 121.28 868.183 120.848C869.311 120.416 870.559 120.128 871.927 119.984C873.295 119.84 874.627 119.768 875.923 119.768V119.48C875.923 118.592 875.611 117.944 874.987 117.536C874.363 117.104 873.595 116.888 872.683 116.888C871.843 116.888 871.027 117.068 870.235 117.428C869.467 117.788 868.807 118.22 868.255 118.724L865.267 115.52ZM896.025 133.7C895.665 134.636 895.257 135.464 894.801 136.184C894.369 136.928 893.841 137.552 893.217 138.056C892.617 138.584 891.897 138.98 891.057 139.244C890.241 139.508 889.269 139.64 888.141 139.64C887.589 139.64 887.013 139.604 886.413 139.532C885.837 139.46 885.333 139.364 884.901 139.244L885.549 134.276C885.837 134.372 886.149 134.444 886.485 134.492C886.845 134.564 887.169 134.6 887.457 134.6C888.369 134.6 889.029 134.384 889.437 133.952C889.845 133.544 890.193 132.956 890.481 132.188L891.057 130.712L883.569 113.072H890.121L894.117 124.592H894.225L897.789 113.072H904.053L896.025 133.7Z" fill="#02323D"/>
<path d="M339.072 177H330.918V175.65L336.138 170.376C336.33 170.184 336.516 169.98 336.696 169.764C336.888 169.536 337.056 169.302 337.2 169.062C337.344 168.822 337.458 168.57 337.542 168.306C337.626 168.03 337.668 167.748 337.668 167.46C337.668 167.088 337.602 166.752 337.47 166.452C337.338 166.152 337.152 165.9 336.912 165.696C336.684 165.48 336.414 165.318 336.102 165.21C335.802 165.09 335.484 165.03 335.148 165.03C334.464 165.03 333.888 165.246 333.42 165.678C332.952 166.098 332.652 166.638 332.52 167.298L331.242 167.046C331.326 166.602 331.482 166.188 331.71 165.804C331.95 165.42 332.238 165.09 332.574 164.814C332.922 164.538 333.312 164.322 333.744 164.166C334.176 164.01 334.644 163.932 335.148 163.932C335.664 163.932 336.15 164.01 336.606 164.166C337.074 164.31 337.482 164.532 337.83 164.832C338.178 165.12 338.454 165.486 338.658 165.93C338.874 166.362 338.982 166.866 338.982 167.442C338.982 167.85 338.922 168.228 338.802 168.576C338.694 168.924 338.544 169.254 338.352 169.566C338.172 169.878 337.956 170.178 337.704 170.466C337.452 170.742 337.188 171.018 336.912 171.294L332.322 175.848H339.072V177ZM345.661 163.932C346.453 163.932 347.113 164.13 347.641 164.526C348.181 164.91 348.613 165.42 348.937 166.056C349.261 166.68 349.489 167.394 349.621 168.198C349.765 169.002 349.837 169.818 349.837 170.646C349.837 171.474 349.765 172.29 349.621 173.094C349.489 173.886 349.261 174.6 348.937 175.236C348.613 175.86 348.181 176.364 347.641 176.748C347.113 177.132 346.453 177.324 345.661 177.324C344.857 177.324 344.185 177.132 343.645 176.748C343.117 176.364 342.691 175.86 342.367 175.236C342.043 174.6 341.815 173.886 341.683 173.094C341.551 172.29 341.485 171.474 341.485 170.646C341.485 169.818 341.551 169.002 341.683 168.198C341.815 167.394 342.043 166.68 342.367 166.056C342.691 165.42 343.117 164.91 343.645 164.526C344.185 164.13 344.857 163.932 345.661 163.932ZM345.661 165.03C345.097 165.03 344.629 165.204 344.257 165.552C343.885 165.9 343.591 166.344 343.375 166.884C343.159 167.424 343.009 168.03 342.925 168.702C342.841 169.362 342.799 170.01 342.799 170.646C342.799 171.282 342.841 171.93 342.925 172.59C343.009 173.25 343.159 173.85 343.375 174.39C343.591 174.918 343.885 175.356 344.257 175.704C344.629 176.04 345.097 176.208 345.661 176.208C346.213 176.208 346.675 176.04 347.047 175.704C347.419 175.356 347.713 174.918 347.929 174.39C348.145 173.85 348.295 173.25 348.379 172.59C348.475 171.93 348.523 171.282 348.523 170.646C348.523 170.01 348.475 169.362 348.379 168.702C348.295 168.03 348.145 167.424 347.929 166.884C347.713 166.344 347.419 165.9 347.047 165.552C346.675 165.204 346.213 165.03 345.661 165.03ZM357.903 167.19C357.903 167.634 357.819 168.048 357.651 168.432C357.495 168.816 357.273 169.152 356.985 169.44C356.697 169.716 356.361 169.938 355.977 170.106C355.593 170.262 355.179 170.34 354.735 170.34C354.291 170.34 353.877 170.262 353.493 170.106C353.109 169.938 352.773 169.716 352.485 169.44C352.197 169.152 351.969 168.816 351.801 168.432C351.645 168.048 351.567 167.634 351.567 167.19C351.567 166.746 351.645 166.332 351.801 165.948C351.969 165.564 352.197 165.234 352.485 164.958C352.773 164.67 353.109 164.448 353.493 164.292C353.877 164.124 354.291 164.04 354.735 164.04C355.179 164.04 355.593 164.124 355.977 164.292C356.361 164.448 356.697 164.67 356.985 164.958C357.273 165.234 357.495 165.564 357.651 165.948C357.819 166.332 357.903 166.746 357.903 167.19ZM356.823 167.19C356.823 166.89 356.763 166.614 356.643 166.362C356.535 166.11 356.385 165.894 356.193 165.714C356.013 165.522 355.797 165.378 355.545 165.282C355.293 165.174 355.023 165.12 354.735 165.12C354.447 165.12 354.177 165.174 353.925 165.282C353.673 165.378 353.451 165.522 353.259 165.714C353.079 165.894 352.929 166.11 352.809 166.362C352.701 166.614 352.647 166.89 352.647 167.19C352.647 167.49 352.701 167.766 352.809 168.018C352.929 168.27 353.079 168.492 353.259 168.684C353.451 168.864 353.673 169.008 353.925 169.116C354.177 169.212 354.447 169.26 354.735 169.26C355.023 169.26 355.293 169.212 355.545 169.116C355.797 169.008 356.013 168.864 356.193 168.684C356.385 168.492 356.535 168.27 356.643 168.018C356.763 167.766 356.823 167.49 356.823 167.19ZM365.193 174.066C365.193 174.51 365.109 174.924 364.941 175.308C364.785 175.692 364.563 176.028 364.275 176.316C363.987 176.592 363.651 176.814 363.267 176.982C362.883 177.138 362.469 177.216 362.025 177.216C361.581 177.216 361.167 177.138 360.783 176.982C360.399 176.814 360.063 176.592 359.775 176.316C359.487 176.028 359.259 175.692 359.091 175.308C358.935 174.924 358.857 174.51 358.857 174.066C358.857 173.622 358.935 173.208 359.091 172.824C359.259 172.44 359.487 172.11 359.775 171.834C360.063 171.546 360.399 171.324 360.783 171.168C361.167 171 361.581 170.916 362.025 170.916C362.469 170.916 362.883 171 363.267 171.168C363.651 171.324 363.987 171.546 364.275 171.834C364.563 172.11 364.785 172.44 364.941 172.824C365.109 173.208 365.193 173.622 365.193 174.066ZM364.113 174.066C364.113 173.766 364.053 173.49 363.933 173.238C363.825 172.986 363.675 172.77 363.483 172.59C363.303 172.398 363.087 172.254 362.835 172.158C362.583 172.05 362.313 171.996 362.025 171.996C361.737 171.996 361.467 172.05 361.215 172.158C360.963 172.254 360.741 172.398 360.549 172.59C360.369 172.77 360.219 172.986 360.099 173.238C359.991 173.49 359.937 173.766 359.937 174.066C359.937 174.366 359.991 174.642 360.099 174.894C360.219 175.146 360.369 175.368 360.549 175.56C360.741 175.74 360.963 175.884 361.215 175.992C361.467 176.088 361.737 176.136 362.025 176.136C362.313 176.136 362.583 176.088 362.835 175.992C363.087 175.884 363.303 175.74 363.483 175.56C363.675 175.368 363.825 175.146 363.933 174.894C364.053 174.642 364.113 174.366 364.113 174.066ZM354.789 177.558L353.853 177.072L361.971 163.698L362.889 164.184L354.789 177.558ZM380.367 172.788C380.367 173.424 380.253 174.012 380.025 174.552C379.809 175.092 379.503 175.56 379.107 175.956C378.711 176.352 378.237 176.664 377.685 176.892C377.133 177.108 376.527 177.216 375.867 177.216C375.219 177.216 374.619 177.108 374.067 176.892C373.515 176.664 373.041 176.352 372.645 175.956C372.249 175.56 371.937 175.092 371.709 174.552C371.493 174.012 371.385 173.424 371.385 172.788C371.385 172.152 371.493 171.564 371.709 171.024C371.937 170.484 372.249 170.016 372.645 169.62C373.041 169.224 373.515 168.918 374.067 168.702C374.619 168.474 375.219 168.36 375.867 168.36C376.527 168.36 377.133 168.474 377.685 168.702C378.237 168.918 378.711 169.224 379.107 169.62C379.503 170.016 379.809 170.484 380.025 171.024C380.253 171.564 380.367 172.152 380.367 172.788ZM379.071 172.788C379.071 172.32 378.993 171.882 378.837 171.474C378.693 171.054 378.483 170.694 378.207 170.394C377.931 170.082 377.595 169.836 377.199 169.656C376.803 169.476 376.359 169.386 375.867 169.386C375.375 169.386 374.931 169.476 374.535 169.656C374.151 169.836 373.821 170.082 373.545 170.394C373.269 170.694 373.053 171.054 372.897 171.474C372.753 171.882 372.681 172.32 372.681 172.788C372.681 173.256 372.753 173.7 372.897 174.12C373.053 174.528 373.269 174.888 373.545 175.2C373.821 175.5 374.151 175.74 374.535 175.92C374.931 176.088 375.375 176.172 375.867 176.172C376.359 176.172 376.803 176.088 377.199 175.92C377.595 175.74 377.931 175.5 378.207 175.2C378.483 174.888 378.693 174.528 378.837 174.12C378.993 173.7 379.071 173.256 379.071 172.788ZM386.565 169.602H384.585V177H383.361V169.602H381.597V168.576H383.361V166.272C383.361 165.312 383.595 164.556 384.063 164.004C384.531 163.452 385.251 163.176 386.223 163.176C386.379 163.176 386.547 163.188 386.727 163.212C386.907 163.224 387.075 163.254 387.231 163.302L387.015 164.382C386.883 164.346 386.751 164.316 386.619 164.292C386.487 164.268 386.337 164.256 386.169 164.256C385.845 164.256 385.575 164.31 385.359 164.418C385.155 164.526 384.993 164.682 384.873 164.886C384.765 165.078 384.687 165.306 384.639 165.57C384.603 165.834 384.585 166.116 384.585 166.416V168.576H386.565V169.602ZM391.557 169.602H389.577V177H388.353V169.602H386.589V168.576H388.353V166.272C388.353 165.312 388.587 164.556 389.055 164.004C389.523 163.452 390.243 163.176 391.215 163.176C391.371 163.176 391.539 163.188 391.719 163.212C391.899 163.224 392.067 163.254 392.223 163.302L392.007 164.382C391.875 164.346 391.743 164.316 391.611 164.292C391.479 164.268 391.329 164.256 391.161 164.256C390.837 164.256 390.567 164.31 390.351 164.418C390.147 164.526 389.985 164.682 389.865 164.886C389.757 165.078 389.679 165.306 389.631 165.57C389.595 165.834 389.577 166.116 389.577 166.416V168.576H391.557V169.602ZM406.611 172.788C406.611 173.424 406.497 174.012 406.269 174.552C406.053 175.092 405.747 175.56 405.351 175.956C404.955 176.352 404.481 176.664 403.929 176.892C403.377 177.108 402.771 177.216 402.111 177.216C401.463 177.216 400.863 177.108 400.311 176.892C399.759 176.664 399.285 176.352 398.889 175.956C398.493 175.56 398.181 175.092 397.953 174.552C397.737 174.012 397.629 173.424 397.629 172.788C397.629 172.152 397.737 171.564 397.953 171.024C398.181 170.484 398.493 170.016 398.889 169.62C399.285 169.224 399.759 168.918 400.311 168.702C400.863 168.474 401.463 168.36 402.111 168.36C402.771 168.36 403.377 168.474 403.929 168.702C404.481 168.918 404.955 169.224 405.351 169.62C405.747 170.016 406.053 170.484 406.269 171.024C406.497 171.564 406.611 172.152 406.611 172.788ZM405.315 172.788C405.315 172.32 405.237 171.882 405.081 171.474C404.937 171.054 404.727 170.694 404.451 170.394C404.175 170.082 403.839 169.836 403.443 169.656C403.047 169.476 402.603 169.386 402.111 169.386C401.619 169.386 401.175 169.476 400.779 169.656C400.395 169.836 400.065 170.082 399.789 170.394C399.513 170.694 399.297 171.054 399.141 171.474C398.997 171.882 398.925 172.32 398.925 172.788C398.925 173.256 398.997 173.7 399.141 174.12C399.297 174.528 399.513 174.888 399.789 175.2C400.065 175.5 400.395 175.74 400.779 175.92C401.175 176.088 401.619 176.172 402.111 176.172C402.603 176.172 403.047 176.088 403.443 175.92C403.839 175.74 404.175 175.5 404.451 175.2C404.727 174.888 404.937 174.528 405.081 174.12C405.237 173.7 405.315 173.256 405.315 172.788ZM410.343 168.576C410.367 168.804 410.385 169.056 410.397 169.332C410.409 169.608 410.415 169.836 410.415 170.016H410.451C410.691 169.524 411.081 169.128 411.621 168.828C412.161 168.516 412.731 168.36 413.331 168.36C414.399 168.36 415.197 168.678 415.725 169.314C416.265 169.95 416.535 170.79 416.535 171.834V177H415.311V172.338C415.311 171.894 415.275 171.492 415.203 171.132C415.131 170.772 415.005 170.466 414.825 170.214C414.657 169.95 414.423 169.746 414.123 169.602C413.835 169.458 413.469 169.386 413.025 169.386C412.701 169.386 412.383 169.452 412.071 169.584C411.771 169.716 411.501 169.92 411.261 170.196C411.021 170.46 410.829 170.802 410.685 171.222C410.541 171.63 410.469 172.116 410.469 172.68V177H409.245V170.43C409.245 170.202 409.239 169.908 409.227 169.548C409.215 169.188 409.197 168.864 409.173 168.576H410.343ZM428.686 170.574C428.506 170.226 428.23 169.944 427.858 169.728C427.498 169.5 427.084 169.386 426.616 169.386C426.4 169.386 426.184 169.41 425.968 169.458C425.752 169.506 425.56 169.584 425.392 169.692C425.224 169.8 425.086 169.938 424.978 170.106C424.882 170.274 424.834 170.472 424.834 170.7C424.834 171.096 424.996 171.402 425.32 171.618C425.644 171.822 426.154 171.996 426.85 172.14C427.846 172.344 428.578 172.644 429.046 173.04C429.526 173.424 429.766 173.946 429.766 174.606C429.766 175.086 429.67 175.494 429.478 175.83C429.298 176.154 429.058 176.424 428.758 176.64C428.458 176.844 428.116 176.988 427.732 177.072C427.36 177.168 426.982 177.216 426.598 177.216C425.962 177.216 425.344 177.084 424.744 176.82C424.144 176.556 423.652 176.142 423.268 175.578L424.24 174.858C424.456 175.23 424.774 175.542 425.194 175.794C425.614 176.046 426.076 176.172 426.58 176.172C426.844 176.172 427.096 176.148 427.336 176.1C427.576 176.052 427.786 175.968 427.966 175.848C428.146 175.728 428.29 175.578 428.398 175.398C428.506 175.206 428.56 174.972 428.56 174.696C428.56 174.252 428.344 173.922 427.912 173.706C427.492 173.478 426.88 173.268 426.076 173.076C425.824 173.016 425.554 172.944 425.266 172.86C424.99 172.764 424.732 172.632 424.492 172.464C424.252 172.284 424.054 172.062 423.898 171.798C423.742 171.534 423.664 171.204 423.664 170.808C423.664 170.376 423.748 170.01 423.916 169.71C424.084 169.398 424.306 169.146 424.582 168.954C424.87 168.75 425.194 168.6 425.554 168.504C425.914 168.408 426.286 168.36 426.67 168.36C427.258 168.36 427.828 168.492 428.38 168.756C428.932 169.02 429.346 169.392 429.622 169.872L428.686 170.574ZM438.628 172.14C438.592 171.348 438.334 170.694 437.854 170.178C437.386 169.65 436.714 169.386 435.838 169.386C435.43 169.386 435.052 169.464 434.704 169.62C434.356 169.764 434.05 169.968 433.786 170.232C433.522 170.484 433.312 170.778 433.156 171.114C433 171.438 432.91 171.78 432.886 172.14H438.628ZM439.87 172.536C439.87 172.62 439.87 172.71 439.87 172.806C439.87 172.902 439.864 173.004 439.852 173.112H432.868C432.88 173.532 432.964 173.928 433.12 174.3C433.276 174.672 433.492 174.996 433.768 175.272C434.044 175.548 434.368 175.77 434.74 175.938C435.112 176.094 435.514 176.172 435.946 176.172C436.582 176.172 437.128 176.028 437.584 175.74C438.052 175.44 438.406 175.098 438.646 174.714L439.564 175.434C439.06 176.07 438.502 176.526 437.89 176.802C437.29 177.078 436.642 177.216 435.946 177.216C435.322 177.216 434.74 177.108 434.2 176.892C433.672 176.664 433.216 176.352 432.832 175.956C432.448 175.56 432.142 175.092 431.914 174.552C431.698 174.012 431.59 173.424 431.59 172.788C431.59 172.152 431.698 171.564 431.914 171.024C432.13 170.484 432.43 170.016 432.814 169.62C433.198 169.224 433.648 168.918 434.164 168.702C434.68 168.474 435.238 168.36 435.838 168.36C436.498 168.36 437.08 168.474 437.584 168.702C438.088 168.918 438.508 169.218 438.844 169.602C439.18 169.974 439.432 170.412 439.6 170.916C439.78 171.42 439.87 171.96 439.87 172.536ZM443.763 177H442.539V163.392H443.763V177ZM453.464 172.14C453.428 171.348 453.17 170.694 452.69 170.178C452.222 169.65 451.55 169.386 450.674 169.386C450.266 169.386 449.888 169.464 449.54 169.62C449.192 169.764 448.886 169.968 448.622 170.232C448.358 170.484 448.148 170.778 447.992 171.114C447.836 171.438 447.746 171.78 447.722 172.14H453.464ZM454.706 172.536C454.706 172.62 454.706 172.71 454.706 172.806C454.706 172.902 454.7 173.004 454.688 173.112H447.704C447.716 173.532 447.8 173.928 447.956 174.3C448.112 174.672 448.328 174.996 448.604 175.272C448.88 175.548 449.204 175.77 449.576 175.938C449.948 176.094 450.35 176.172 450.782 176.172C451.418 176.172 451.964 176.028 452.42 175.74C452.888 175.44 453.242 175.098 453.482 174.714L454.4 175.434C453.896 176.07 453.338 176.526 452.726 176.802C452.126 177.078 451.478 177.216 450.782 177.216C450.158 177.216 449.576 177.108 449.036 176.892C448.508 176.664 448.052 176.352 447.668 175.956C447.284 175.56 446.978 175.092 446.75 174.552C446.534 174.012 446.426 173.424 446.426 172.788C446.426 172.152 446.534 171.564 446.75 171.024C446.966 170.484 447.266 170.016 447.65 169.62C448.034 169.224 448.484 168.918 449 168.702C449.516 168.474 450.074 168.36 450.674 168.36C451.334 168.36 451.916 168.474 452.42 168.702C452.924 168.918 453.344 169.218 453.68 169.602C454.016 169.974 454.268 170.412 454.436 170.916C454.616 171.42 454.706 171.96 454.706 172.536ZM463.405 170.502C463.201 170.178 462.901 169.914 462.505 169.71C462.121 169.494 461.701 169.386 461.245 169.386C460.753 169.386 460.309 169.476 459.913 169.656C459.517 169.824 459.175 170.064 458.887 170.376C458.611 170.676 458.395 171.036 458.239 171.456C458.095 171.864 458.023 172.308 458.023 172.788C458.023 173.268 458.095 173.712 458.239 174.12C458.395 174.528 458.611 174.888 458.887 175.2C459.163 175.5 459.499 175.74 459.895 175.92C460.291 176.088 460.735 176.172 461.227 176.172C461.767 176.172 462.223 176.07 462.595 175.866C462.967 175.662 463.273 175.398 463.513 175.074L464.431 175.758C464.071 176.202 463.627 176.556 463.099 176.82C462.583 177.084 461.959 177.216 461.227 177.216C460.543 177.216 459.925 177.108 459.373 176.892C458.821 176.664 458.347 176.352 457.951 175.956C457.567 175.56 457.267 175.092 457.051 174.552C456.835 174.012 456.727 173.424 456.727 172.788C456.727 172.152 456.835 171.564 457.051 171.024C457.267 170.484 457.567 170.016 457.951 169.62C458.347 169.224 458.821 168.918 459.373 168.702C459.925 168.474 460.543 168.36 461.227 168.36C461.791 168.36 462.361 168.486 462.937 168.738C463.525 168.978 463.999 169.338 464.359 169.818L463.405 170.502ZM470.137 169.602H467.761V174.516C467.761 174.828 467.791 175.086 467.851 175.29C467.911 175.494 467.995 175.656 468.103 175.776C468.223 175.884 468.361 175.962 468.517 176.01C468.673 176.046 468.841 176.064 469.021 176.064C469.189 176.064 469.363 176.04 469.543 175.992C469.735 175.944 469.915 175.878 470.083 175.794L470.137 176.856C469.921 176.94 469.693 177 469.453 177.036C469.225 177.084 468.973 177.108 468.697 177.108C468.469 177.108 468.229 177.078 467.977 177.018C467.725 176.958 467.491 176.844 467.275 176.676C467.059 176.508 466.879 176.28 466.735 175.992C466.603 175.704 466.537 175.326 466.537 174.858V169.602H464.791V168.576H466.537V166.2H467.761V168.576H470.137V169.602ZM478.478 172.14C478.442 171.348 478.184 170.694 477.704 170.178C477.236 169.65 476.564 169.386 475.688 169.386C475.28 169.386 474.902 169.464 474.554 169.62C474.206 169.764 473.9 169.968 473.636 170.232C473.372 170.484 473.162 170.778 473.006 171.114C472.85 171.438 472.76 171.78 472.736 172.14H478.478ZM479.72 172.536C479.72 172.62 479.72 172.71 479.72 172.806C479.72 172.902 479.714 173.004 479.702 173.112H472.718C472.73 173.532 472.814 173.928 472.97 174.3C473.126 174.672 473.342 174.996 473.618 175.272C473.894 175.548 474.218 175.77 474.59 175.938C474.962 176.094 475.364 176.172 475.796 176.172C476.432 176.172 476.978 176.028 477.434 175.74C477.902 175.44 478.256 175.098 478.496 174.714L479.414 175.434C478.91 176.07 478.352 176.526 477.74 176.802C477.14 177.078 476.492 177.216 475.796 177.216C475.172 177.216 474.59 177.108 474.05 176.892C473.522 176.664 473.066 176.352 472.682 175.956C472.298 175.56 471.992 175.092 471.764 174.552C471.548 174.012 471.44 173.424 471.44 172.788C471.44 172.152 471.548 171.564 471.764 171.024C471.98 170.484 472.28 170.016 472.664 169.62C473.048 169.224 473.498 168.918 474.014 168.702C474.53 168.474 475.088 168.36 475.688 168.36C476.348 168.36 476.93 168.474 477.434 168.702C477.938 168.918 478.358 169.218 478.694 169.602C479.03 169.974 479.282 170.412 479.45 170.916C479.63 171.42 479.72 171.96 479.72 172.536ZM489.282 175.578C488.922 176.118 488.454 176.526 487.878 176.802C487.302 177.078 486.708 177.216 486.096 177.216C485.436 177.216 484.836 177.102 484.296 176.874C483.768 176.646 483.312 176.334 482.928 175.938C482.556 175.542 482.262 175.074 482.046 174.534C481.842 173.994 481.74 173.412 481.74 172.788C481.74 172.164 481.842 171.582 482.046 171.042C482.262 170.502 482.556 170.034 482.928 169.638C483.312 169.242 483.768 168.93 484.296 168.702C484.836 168.474 485.436 168.36 486.096 168.36C486.708 168.36 487.302 168.504 487.878 168.792C488.454 169.068 488.922 169.482 489.282 170.034H489.318V163.392H490.542V177H489.318V175.578H489.282ZM483.036 172.788C483.036 173.256 483.108 173.7 483.252 174.12C483.396 174.528 483.6 174.888 483.864 175.2C484.14 175.5 484.476 175.74 484.872 175.92C485.268 176.088 485.718 176.172 486.222 176.172C486.69 176.172 487.122 176.088 487.518 175.92C487.914 175.74 488.256 175.5 488.544 175.2C488.832 174.9 489.054 174.546 489.21 174.138C489.378 173.718 489.462 173.268 489.462 172.788C489.462 172.308 489.378 171.864 489.21 171.456C489.054 171.036 488.832 170.676 488.544 170.376C488.256 170.064 487.914 169.824 487.518 169.656C487.122 169.476 486.69 169.386 486.222 169.386C485.718 169.386 485.268 169.476 484.872 169.656C484.476 169.836 484.14 170.082 483.864 170.394C483.6 170.694 483.396 171.054 483.252 171.474C483.108 171.882 483.036 172.32 483.036 172.788ZM502.111 169.602H499.735V174.516C499.735 174.828 499.765 175.086 499.825 175.29C499.885 175.494 499.969 175.656 500.077 175.776C500.197 175.884 500.335 175.962 500.491 176.01C500.647 176.046 500.815 176.064 500.995 176.064C501.163 176.064 501.337 176.04 501.517 175.992C501.709 175.944 501.889 175.878 502.057 175.794L502.111 176.856C501.895 176.94 501.667 177 501.427 177.036C501.199 177.084 500.947 177.108 500.671 177.108C500.443 177.108 500.203 177.078 499.951 177.018C499.699 176.958 499.465 176.844 499.249 176.676C499.033 176.508 498.853 176.28 498.709 175.992C498.577 175.704 498.511 175.326 498.511 174.858V169.602H496.765V168.576H498.511V166.2H499.735V168.576H502.111V169.602ZM504.026 170.43C504.026 170.202 504.02 169.908 504.008 169.548C503.996 169.188 503.978 168.864 503.954 168.576H505.124C505.148 168.804 505.166 169.056 505.178 169.332C505.19 169.608 505.196 169.836 505.196 170.016H505.232C505.472 169.524 505.832 169.128 506.312 168.828C506.792 168.516 507.332 168.36 507.932 168.36C508.088 168.36 508.226 168.366 508.346 168.378C508.478 168.39 508.61 168.414 508.742 168.45L508.58 169.602C508.508 169.578 508.388 169.554 508.22 169.53C508.052 169.506 507.884 169.494 507.716 169.494C507.392 169.494 507.08 169.554 506.78 169.674C506.48 169.794 506.216 169.986 505.988 170.25C505.772 170.502 505.592 170.832 505.448 171.24C505.316 171.636 505.25 172.116 505.25 172.68V177H504.026V170.43ZM516.622 172.14C516.586 171.348 516.328 170.694 515.848 170.178C515.38 169.65 514.708 169.386 513.832 169.386C513.424 169.386 513.046 169.464 512.698 169.62C512.35 169.764 512.044 169.968 511.78 170.232C511.516 170.484 511.306 170.778 511.15 171.114C510.994 171.438 510.904 171.78 510.88 172.14H516.622ZM517.864 172.536C517.864 172.62 517.864 172.71 517.864 172.806C517.864 172.902 517.858 173.004 517.846 173.112H510.862C510.874 173.532 510.958 173.928 511.114 174.3C511.27 174.672 511.486 174.996 511.762 175.272C512.038 175.548 512.362 175.77 512.734 175.938C513.106 176.094 513.508 176.172 513.94 176.172C514.576 176.172 515.122 176.028 515.578 175.74C516.046 175.44 516.4 175.098 516.64 174.714L517.558 175.434C517.054 176.07 516.496 176.526 515.884 176.802C515.284 177.078 514.636 177.216 513.94 177.216C513.316 177.216 512.734 177.108 512.194 176.892C511.666 176.664 511.21 176.352 510.826 175.956C510.442 175.56 510.136 175.092 509.908 174.552C509.692 174.012 509.584 173.424 509.584 172.788C509.584 172.152 509.692 171.564 509.908 171.024C510.124 170.484 510.424 170.016 510.808 169.62C511.192 169.224 511.642 168.918 512.158 168.702C512.674 168.474 513.232 168.36 513.832 168.36C514.492 168.36 515.074 168.474 515.578 168.702C516.082 168.918 516.502 169.218 516.838 169.602C517.174 169.974 517.426 170.412 517.594 170.916C517.774 171.42 517.864 171.96 517.864 172.536ZM525.701 171.564C525.701 170.832 525.509 170.286 525.125 169.926C524.741 169.566 524.183 169.386 523.451 169.386C522.947 169.386 522.479 169.476 522.047 169.656C521.615 169.836 521.249 170.076 520.949 170.376L520.265 169.566C520.613 169.218 521.069 168.93 521.633 168.702C522.209 168.474 522.857 168.36 523.577 168.36C524.033 168.36 524.459 168.426 524.855 168.558C525.251 168.678 525.599 168.864 525.899 169.116C526.199 169.368 526.433 169.686 526.601 170.07C526.769 170.454 526.853 170.904 526.853 171.42V175.11C526.853 175.434 526.865 175.77 526.889 176.118C526.913 176.466 526.949 176.76 526.997 177H525.899C525.863 176.796 525.833 176.574 525.809 176.334C525.785 176.094 525.773 175.86 525.773 175.632H525.737C525.353 176.196 524.915 176.604 524.423 176.856C523.943 177.096 523.361 177.216 522.677 177.216C522.353 177.216 522.017 177.168 521.669 177.072C521.333 176.988 521.021 176.844 520.733 176.64C520.457 176.436 520.223 176.172 520.031 175.848C519.851 175.524 519.761 175.128 519.761 174.66C519.761 174.012 519.923 173.502 520.247 173.13C520.583 172.746 521.027 172.464 521.579 172.284C522.131 172.092 522.761 171.972 523.469 171.924C524.189 171.864 524.933 171.834 525.701 171.834V171.564ZM525.341 172.788C524.837 172.788 524.327 172.812 523.811 172.86C523.307 172.896 522.845 172.98 522.425 173.112C522.017 173.232 521.681 173.412 521.417 173.652C521.153 173.892 521.021 174.21 521.021 174.606C521.021 174.906 521.075 175.158 521.183 175.362C521.303 175.566 521.459 175.734 521.651 175.866C521.843 175.986 522.053 176.076 522.281 176.136C522.521 176.184 522.761 176.208 523.001 176.208C523.433 176.208 523.817 176.136 524.153 175.992C524.489 175.836 524.771 175.632 524.999 175.38C525.227 175.116 525.401 174.816 525.521 174.48C525.641 174.144 525.701 173.79 525.701 173.418V172.788H525.341ZM533.629 169.602H531.253V174.516C531.253 174.828 531.283 175.086 531.343 175.29C531.403 175.494 531.487 175.656 531.595 175.776C531.715 175.884 531.853 175.962 532.009 176.01C532.165 176.046 532.333 176.064 532.513 176.064C532.681 176.064 532.855 176.04 533.035 175.992C533.227 175.944 533.407 175.878 533.575 175.794L533.629 176.856C533.413 176.94 533.185 177 532.945 177.036C532.717 177.084 532.465 177.108 532.189 177.108C531.961 177.108 531.721 177.078 531.469 177.018C531.217 176.958 530.983 176.844 530.767 176.676C530.551 176.508 530.371 176.28 530.227 175.992C530.095 175.704 530.029 175.326 530.029 174.858V169.602H528.283V168.576H530.029V166.2H531.253V168.576H533.629V169.602ZM536.75 170.016C536.99 169.524 537.356 169.128 537.848 168.828C538.352 168.516 538.91 168.36 539.522 168.36C539.75 168.36 539.984 168.384 540.224 168.432C540.476 168.48 540.716 168.576 540.944 168.72C541.184 168.852 541.4 169.032 541.592 169.26C541.796 169.488 541.97 169.782 542.114 170.142C542.402 169.566 542.792 169.128 543.284 168.828C543.788 168.516 544.382 168.36 545.066 168.36C546.134 168.36 546.932 168.678 547.46 169.314C548 169.95 548.27 170.79 548.27 171.834V177H547.046V172.338C547.046 171.45 546.878 170.736 546.542 170.196C546.218 169.656 545.66 169.386 544.868 169.386C544.424 169.386 544.046 169.476 543.734 169.656C543.434 169.836 543.188 170.076 542.996 170.376C542.816 170.664 542.684 170.994 542.6 171.366C542.516 171.738 542.474 172.122 542.474 172.518V177H541.25V172.086C541.25 171.678 541.22 171.306 541.16 170.97C541.1 170.634 540.992 170.352 540.836 170.124C540.692 169.884 540.488 169.704 540.224 169.584C539.96 169.452 539.624 169.386 539.216 169.386C538.928 169.386 538.634 169.452 538.334 169.584C538.046 169.716 537.782 169.92 537.542 170.196C537.314 170.46 537.128 170.802 536.984 171.222C536.84 171.63 536.768 172.116 536.768 172.68V177H535.544V170.43C535.544 170.202 535.538 169.908 535.526 169.548C535.514 169.188 535.496 168.864 535.472 168.576H536.642C536.666 168.804 536.684 169.056 536.696 169.332C536.708 169.608 536.714 169.836 536.714 170.016H536.75ZM557.86 172.14C557.824 171.348 557.566 170.694 557.086 170.178C556.618 169.65 555.946 169.386 555.07 169.386C554.662 169.386 554.284 169.464 553.936 169.62C553.588 169.764 553.282 169.968 553.018 170.232C552.754 170.484 552.544 170.778 552.388 171.114C552.232 171.438 552.142 171.78 552.118 172.14H557.86ZM559.102 172.536C559.102 172.62 559.102 172.71 559.102 172.806C559.102 172.902 559.096 173.004 559.084 173.112H552.1C552.112 173.532 552.196 173.928 552.352 174.3C552.508 174.672 552.724 174.996 553 175.272C553.276 175.548 553.6 175.77 553.972 175.938C554.344 176.094 554.746 176.172 555.178 176.172C555.814 176.172 556.36 176.028 556.816 175.74C557.284 175.44 557.638 175.098 557.878 174.714L558.796 175.434C558.292 176.07 557.734 176.526 557.122 176.802C556.522 177.078 555.874 177.216 555.178 177.216C554.554 177.216 553.972 177.108 553.432 176.892C552.904 176.664 552.448 176.352 552.064 175.956C551.68 175.56 551.374 175.092 551.146 174.552C550.93 174.012 550.822 173.424 550.822 172.788C550.822 172.152 550.93 171.564 551.146 171.024C551.362 170.484 551.662 170.016 552.046 169.62C552.43 169.224 552.88 168.918 553.396 168.702C553.912 168.474 554.47 168.36 555.07 168.36C555.73 168.36 556.312 168.474 556.816 168.702C557.32 168.918 557.74 169.218 558.076 169.602C558.412 169.974 558.664 170.412 558.832 170.916C559.012 171.42 559.102 171.96 559.102 172.536ZM562.833 168.576C562.857 168.804 562.875 169.056 562.887 169.332C562.899 169.608 562.905 169.836 562.905 170.016H562.941C563.181 169.524 563.571 169.128 564.111 168.828C564.651 168.516 565.221 168.36 565.821 168.36C566.889 168.36 567.687 168.678 568.215 169.314C568.755 169.95 569.025 170.79 569.025 171.834V177H567.801V172.338C567.801 171.894 567.765 171.492 567.693 171.132C567.621 170.772 567.495 170.466 567.315 170.214C567.147 169.95 566.913 169.746 566.613 169.602C566.325 169.458 565.959 169.386 565.515 169.386C565.191 169.386 564.873 169.452 564.561 169.584C564.261 169.716 563.991 169.92 563.751 170.196C563.511 170.46 563.319 170.802 563.175 171.222C563.031 171.63 562.959 172.116 562.959 172.68V177H561.735V170.43C561.735 170.202 561.729 169.908 561.717 169.548C561.705 169.188 561.687 168.864 561.663 168.576H562.833ZM575.992 169.602H573.616V174.516C573.616 174.828 573.646 175.086 573.706 175.29C573.766 175.494 573.85 175.656 573.958 175.776C574.078 175.884 574.216 175.962 574.372 176.01C574.528 176.046 574.696 176.064 574.876 176.064C575.044 176.064 575.218 176.04 575.398 175.992C575.59 175.944 575.77 175.878 575.938 175.794L575.992 176.856C575.776 176.94 575.548 177 575.308 177.036C575.08 177.084 574.828 177.108 574.552 177.108C574.324 177.108 574.084 177.078 573.832 177.018C573.58 176.958 573.346 176.844 573.13 176.676C572.914 176.508 572.734 176.28 572.59 175.992C572.458 175.704 572.392 175.326 572.392 174.858V169.602H570.646V168.576H572.392V166.2H573.616V168.576H575.992V169.602ZM582.389 170.574C582.209 170.226 581.933 169.944 581.561 169.728C581.201 169.5 580.787 169.386 580.319 169.386C580.103 169.386 579.887 169.41 579.671 169.458C579.455 169.506 579.263 169.584 579.095 169.692C578.927 169.8 578.789 169.938 578.681 170.106C578.585 170.274 578.537 170.472 578.537 170.7C578.537 171.096 578.699 171.402 579.023 171.618C579.347 171.822 579.857 171.996 580.553 172.14C581.549 172.344 582.281 172.644 582.749 173.04C583.229 173.424 583.469 173.946 583.469 174.606C583.469 175.086 583.373 175.494 583.181 175.83C583.001 176.154 582.761 176.424 582.461 176.64C582.161 176.844 581.819 176.988 581.435 177.072C581.063 177.168 580.685 177.216 580.301 177.216C579.665 177.216 579.047 177.084 578.447 176.82C577.847 176.556 577.355 176.142 576.971 175.578L577.943 174.858C578.159 175.23 578.477 175.542 578.897 175.794C579.317 176.046 579.779 176.172 580.283 176.172C580.547 176.172 580.799 176.148 581.039 176.1C581.279 176.052 581.489 175.968 581.669 175.848C581.849 175.728 581.993 175.578 582.101 175.398C582.209 175.206 582.263 174.972 582.263 174.696C582.263 174.252 582.047 173.922 581.615 173.706C581.195 173.478 580.583 173.268 579.779 173.076C579.527 173.016 579.257 172.944 578.969 172.86C578.693 172.764 578.435 172.632 578.195 172.464C577.955 172.284 577.757 172.062 577.601 171.798C577.445 171.534 577.367 171.204 577.367 170.808C577.367 170.376 577.451 170.01 577.619 169.71C577.787 169.398 578.009 169.146 578.285 168.954C578.573 168.75 578.897 168.6 579.257 168.504C579.617 168.408 579.989 168.36 580.373 168.36C580.961 168.36 581.531 168.492 582.083 168.756C582.635 169.02 583.049 169.392 583.325 169.872L582.389 170.574Z" fill="#17505C"/>
<path d="M1087.85 120.298C1090.07 118.831 1091.88 116.812 1093.09 114.44C1093.55 113.609 1093.68 112.637 1093.45 111.714C1093.23 110.792 1092.67 109.988 1091.88 109.461C1091.45 109.191 1090.97 109.014 1090.46 108.939C1089.96 108.864 1089.45 108.895 1088.96 109.028C1088.47 109.161 1088.02 109.395 1087.62 109.713C1087.23 110.032 1086.9 110.429 1086.67 110.879C1086.04 112.177 1085.1 113.293 1083.92 114.119C1083.4 114.459 1082.97 114.924 1082.68 115.472C1082.39 116.021 1082.24 116.634 1082.24 117.255C1082.25 117.905 1082.43 118.54 1082.77 119.096C1083.11 119.651 1083.58 120.108 1084.16 120.418C1084.73 120.727 1085.37 120.88 1086.02 120.859C1086.67 120.838 1087.3 120.644 1087.85 120.298Z" fill="#17505C"/>
<path d="M1148.34 110.374C1149.24 110.374 1150.1 110.046 1150.77 109.453C1151.44 108.859 1151.87 108.041 1151.98 107.152C1152.09 106.263 1151.87 105.365 1151.37 104.627C1150.86 103.889 1150.1 103.362 1149.23 103.146C1148.9 103.042 1148.6 102.849 1148.37 102.587C1148.14 102.324 1147.99 102.004 1147.93 101.66C1147.87 101.181 1147.72 100.717 1147.49 100.295C1147.25 99.8729 1146.94 99.5012 1146.56 99.2011C1146.18 98.9011 1145.75 98.6785 1145.29 98.5462C1144.82 98.4138 1144.34 98.3744 1143.86 98.43C1143.38 98.4856 1142.91 98.6352 1142.49 98.8702C1142.07 99.1053 1141.7 99.4212 1141.4 99.7998C1141.1 100.178 1140.88 100.612 1140.75 101.077C1140.62 101.541 1140.58 102.027 1140.64 102.506C1140.87 104.33 1141.65 106.043 1142.86 107.425C1144.07 108.807 1145.67 109.796 1147.45 110.264C1147.74 110.337 1148.04 110.374 1148.34 110.374Z" fill="#17505C"/>
<path d="M1173.2 126.689C1174.09 126.691 1174.97 126.527 1175.81 126.204C1176.69 125.841 1177.4 125.144 1177.78 124.264C1178.16 123.384 1178.18 122.39 1177.84 121.494C1177.5 120.599 1176.82 119.874 1175.94 119.475C1175.07 119.075 1174.08 119.033 1173.18 119.356C1173.09 119.343 1173.01 119.307 1172.94 119.252C1172.76 118.804 1172.5 118.395 1172.16 118.049C1171.83 117.703 1171.43 117.427 1170.98 117.236C1170.54 117.044 1170.07 116.942 1169.59 116.934C1169.1 116.927 1168.63 117.014 1168.18 117.191C1167.73 117.369 1167.32 117.633 1166.97 117.968C1166.63 118.303 1166.35 118.703 1166.16 119.146C1165.97 119.588 1165.87 120.063 1165.86 120.545C1165.85 121.027 1165.94 121.505 1166.12 121.953C1166.85 123.787 1168.29 125.255 1170.1 126.038C1171.08 126.466 1172.13 126.688 1173.2 126.689Z" fill="#17505C"/>
<path d="M1151.24 133.019C1151.76 133.02 1152.28 132.965 1152.8 132.857C1153.74 132.65 1154.57 132.077 1155.09 131.263C1155.62 130.449 1155.8 129.461 1155.6 128.513C1155.4 127.565 1154.83 126.735 1154.02 126.204C1153.21 125.674 1152.22 125.485 1151.27 125.68C1151.08 125.685 1150.89 125.622 1150.74 125.502C1150.58 125.403 1150.45 125.249 1150.38 125.068C1150.32 124.586 1150.15 124.123 1149.9 123.704C1149.66 123.286 1149.33 122.922 1148.93 122.632C1148.54 122.343 1148.1 122.134 1147.63 122.018C1147.15 121.902 1146.66 121.881 1146.18 121.957C1145.7 122.032 1145.24 122.203 1144.83 122.458C1144.41 122.713 1144.05 123.049 1143.77 123.444C1143.49 123.84 1143.28 124.288 1143.18 124.762C1143.07 125.236 1143.05 125.728 1143.14 126.207C1143.32 127.283 1143.72 128.311 1144.31 129.228C1144.9 130.146 1145.68 130.933 1146.58 131.544C1147.95 132.495 1149.57 133.009 1151.24 133.019Z" fill="#17505C"/>
<path d="M1157.94 97.0718C1158.84 97.0717 1159.7 96.744 1160.37 96.1506C1161.04 95.5571 1161.47 94.7389 1161.58 93.85C1161.69 92.9612 1161.47 92.0632 1160.97 91.3252C1160.46 90.5873 1159.7 90.0604 1158.83 89.8439L1156.35 89.224C1155.88 89.1072 1155.4 89.0836 1154.92 89.1545C1154.44 89.2254 1153.99 89.3895 1153.57 89.6373C1153.16 89.8852 1152.8 90.212 1152.51 90.5991C1152.23 90.9862 1152.02 91.426 1151.9 91.8933C1151.79 92.3607 1151.76 92.8465 1151.83 93.323C1151.9 93.7994 1152.07 94.2573 1152.32 94.6704C1152.56 95.0835 1152.89 95.4437 1153.28 95.7304C1153.66 96.0172 1154.1 96.225 1154.57 96.3418L1157.05 96.9611C1157.34 97.0346 1157.64 97.0718 1157.94 97.0718Z" fill="#17505C"/>
<path d="M1181.68 114.363C1182.28 114.363 1182.87 114.216 1183.4 113.935C1183.93 113.654 1184.38 113.247 1184.72 112.751C1185.05 112.254 1185.26 111.683 1185.33 111.087C1185.39 110.491 1185.31 109.888 1185.08 109.331L1184.46 107.783C1184.29 107.33 1184.03 106.917 1183.69 106.567C1183.35 106.217 1182.95 105.937 1182.51 105.743C1182.06 105.55 1181.58 105.446 1181.1 105.439C1180.61 105.431 1180.13 105.52 1179.68 105.7C1179.23 105.88 1178.82 106.148 1178.47 106.488C1178.13 106.828 1177.85 107.233 1177.66 107.68C1177.47 108.126 1177.38 108.606 1177.37 109.092C1177.37 109.577 1177.47 110.057 1177.65 110.506L1178.27 112.056C1178.54 112.738 1179.01 113.321 1179.62 113.733C1180.23 114.144 1180.95 114.363 1181.68 114.363Z" fill="#17505C"/>
<path d="M1033.03 92.8935C1029.38 81.8739 1031.62 70.1756 1032.39 66.8551C1032.41 66.732 1032.41 66.6055 1032.37 66.4846C1028.44 49.3303 1036.3 31.784 1053.4 19.5501C1062.43 13.1011 1072.9 8.97448 1083.9 7.53514C1095.59 6.10327 1106.41 8.21928 1115.18 13.657C1129.38 22.4555 1137.83 33.1798 1144.62 41.7967C1146.76 44.5162 1148.66 46.922 1150.51 48.9946C1168.12 46.9996 1185.52 55.9944 1197.35 73.3224C1212.91 96.1272 1203.73 117.495 1190.24 129.977C1223.18 182.996 1228.41 269.958 1229.22 295.698C1229.27 297.172 1229.02 298.64 1228.49 300.016C1227.96 301.391 1227.16 302.645 1226.13 303.704C1225.1 304.763 1223.88 305.605 1222.52 306.179C1221.16 306.754 1219.7 307.05 1218.23 307.049H1081.9C1080.34 307.05 1078.79 306.716 1077.37 306.071C1075.94 305.426 1074.67 304.484 1073.63 303.308C1072.6 302.133 1071.83 300.75 1071.38 299.253C1070.92 297.756 1070.79 296.179 1070.99 294.627C1071.75 288.822 1072.84 280.219 1074.24 269.013C1073.68 269.08 1073.13 269.114 1072.57 269.116C1070.64 269.118 1068.73 268.707 1066.97 267.909C1061.06 265.237 1056.77 258.638 1054.22 248.297C1053.98 247.316 1053.48 246.423 1052.75 245.719C1051.71 244.763 1050.9 243.576 1050.4 242.252C1049.89 240.928 1049.71 239.505 1049.85 238.096C1050.58 231.632 1054.66 226.975 1061.32 224.569C1061.13 223.459 1060.95 222.246 1060.78 220.962C1047.63 208.78 1040.31 194.262 1039.05 177.789C1037.95 163.593 1041.44 150.643 1043.98 141.19C1045.17 136.767 1046.19 132.947 1046.3 130.575C1046.64 122.954 1044.01 117.573 1040.36 110.127C1037.51 104.566 1035.06 98.8063 1033.03 92.8935ZM1191.29 77.4615C1180.55 61.7262 1165.46 54.0783 1149.89 56.4804C1143.77 57.402 1138 59.9231 1133.16 63.7893C1128.32 67.6556 1124.58 72.7301 1122.33 78.5008C1125.04 80.3643 1127.11 83.3357 1128.3 87.2388C1128.6 88.1415 1128.55 89.1231 1128.16 89.9894C1127.77 90.8557 1127.06 91.5437 1126.19 91.9171C1125.72 92.102 1125.21 92.1863 1124.7 92.1648C1124.19 92.1434 1123.69 92.0165 1123.24 91.7923C1122.78 91.5682 1122.38 91.2516 1122.05 90.8626C1121.72 90.4736 1121.48 90.0207 1121.33 89.5327C1120.19 85.6638 1118.08 83.6634 1115.05 83.5937C1111.55 83.5087 1107.57 86.0894 1106.52 89.1127C1105.41 92.3133 1105.71 95.5555 1107.32 97.7852C1108.65 99.6261 1110.77 100.598 1113.48 100.598H1113.68C1114.64 100.598 1115.57 100.977 1116.25 101.655C1116.94 102.332 1117.33 103.253 1117.35 104.217C1116.81 108.897 1117.2 113.96 1117.86 116.59C1122.82 136.182 1141.14 142.2 1142.44 142.601C1163.96 148.387 1168.1 143.303 1174.35 135.612C1176.65 132.775 1179.27 129.559 1182.93 126.598C1195.99 116.054 1205.04 97.6055 1191.29 77.4615ZM1099.59 86.7179C1100.43 84.3981 1101.85 82.3304 1103.72 80.7073C1096.09 75.044 1087.87 76.1867 1078.51 77.4951C1070.41 78.6262 1061.5 79.8685 1052.25 76.6055C1052.3 81.2013 1054.68 83.9893 1057.93 87.764C1058.96 88.966 1060.03 90.2095 1061.07 91.587C1065.5 97.4276 1065.75 105.877 1063.21 110.103C1063.04 110.367 1062.97 110.689 1063.03 110.999C1063.09 111.183 1063.19 111.352 1063.31 111.496C1063.44 111.641 1063.6 111.756 1063.77 111.836C1064.58 112.284 1065.97 112.897 1067.45 113.547C1072.22 115.644 1075.74 117.295 1077.56 119.466C1078.27 120.361 1078.92 121.297 1079.52 122.268C1081.59 125.468 1084.44 129.849 1088.65 130.624C1090.72 131.004 1092.86 130.657 1094.71 129.64C1099.88 126.868 1105.22 123.603 1111.58 121.203C1110.15 116.75 1109.38 112.109 1109.32 107.432C1106.12 106.655 1103.3 104.759 1101.37 102.087C1098.36 97.9173 1097.7 92.1715 1099.59 86.7148V86.7179ZM1173.05 162.914C1169.96 163.144 1142.31 164.818 1123.67 152.822C1122.55 152.105 1121.29 151.638 1119.98 151.454C1118.66 151.269 1117.33 151.371 1116.06 151.753C1114.83 152.115 1113.69 152.738 1112.73 153.58C1111.76 154.423 1110.99 155.464 1110.47 156.633C1106.07 166.522 1114.13 171.838 1117.8 173.665C1136.9 183.174 1156.64 183.998 1178.16 176.181C1185.89 173.372 1188.92 169.685 1188.6 163.455C1188.32 157.91 1186.97 156.302 1186.57 155.94C1186.48 155.851 1186.38 155.782 1186.26 155.738C1186.15 155.695 1186.02 155.677 1185.9 155.688C1184.19 155.76 1183.31 154.558 1182.36 153.997C1181.94 153.837 1181.48 153.816 1181.05 153.936C1180.74 154.079 1179.91 155.048 1179.49 157.461C1178.99 160.427 1176.34 162.669 1173.05 162.914ZM1178.41 147.091C1178.15 145.835 1177.83 144.595 1177.43 143.376C1173.13 148.298 1168.04 152.377 1157.73 152.377C1153.49 152.377 1148.34 151.675 1142.02 150.07C1141.7 150.865 1141.4 151.685 1141.09 152.546C1155.18 156.599 1169.83 155.786 1172.38 155.607C1173.25 151.336 1175.42 148.274 1178.41 147.091ZM1114.53 180.236C1106 175.989 1098.06 166.48 1103.76 153.655C1104.72 151.519 1106.12 149.615 1107.88 148.074C1109.64 146.534 1111.71 145.392 1113.96 144.728C1116.24 144.043 1118.65 143.86 1121.01 144.193C1123.37 144.526 1125.63 145.367 1127.64 146.657C1129.72 147.985 1131.91 149.137 1134.18 150.104C1134.49 149.207 1134.81 148.345 1135.15 147.509C1131.23 145.599 1127.59 143.186 1124.3 140.331C1120.29 136.844 1116.95 132.652 1114.44 127.962C1074.64 142.88 1067.42 177.379 1066.71 196.924C1066.59 205.639 1067.19 214.349 1068.48 222.969C1071.02 222.696 1073.58 222.631 1076.13 222.774C1077.42 222.843 1083.52 220.838 1086.48 220.12C1095.89 217.835 1113.41 213.582 1122.86 198.927C1124.1 196.999 1125.23 191.237 1126.31 185.068C1122.27 183.75 1118.33 182.135 1114.53 180.236ZM1079.15 298.467C1079.49 298.862 1079.91 299.178 1080.39 299.394C1080.86 299.609 1081.38 299.719 1081.9 299.716H1218.22C1218.71 299.717 1219.2 299.619 1219.65 299.428C1220.11 299.236 1220.52 298.956 1220.86 298.603C1221.2 298.25 1221.47 297.832 1221.65 297.374C1221.82 296.915 1221.91 296.426 1221.89 295.934C1221.1 270.834 1216.05 186.482 1184.67 134.939C1184 135.616 1183.36 136.299 1182.76 136.991C1184.44 140.587 1185.56 144.423 1186.07 148.362C1188.06 148.388 1189.97 149.133 1191.44 150.461C1194.16 152.871 1195.62 157.002 1195.93 163.09C1196.56 175.591 1187.3 180.468 1182.38 182.433C1178.5 194.549 1172.44 205.853 1164.48 215.783C1166.42 217.1 1168.17 218.671 1169.68 220.454C1174.33 225.907 1178.68 232.731 1182.17 238.214C1184.52 241.899 1186.75 245.402 1188.35 247.329C1188.6 247.366 1188.88 247.402 1189.11 247.434C1192.71 247.913 1200.18 248.909 1202.32 255.329C1204.22 261.044 1202.59 266.568 1197.86 270.487C1194.27 273.373 1189.82 274.973 1185.22 275.029C1183.16 275.077 1181.12 274.624 1179.27 273.707C1176.14 272.301 1172.21 271.247 1167.66 270.027C1158.28 267.513 1146.61 264.384 1136.21 256.165C1135.41 255.557 1134.49 255.139 1133.51 254.941C1132.54 254.744 1131.52 254.773 1130.56 255.025C1127.54 255.785 1113.81 258.808 1105.05 258.808C1100.25 258.83 1095.46 258.324 1090.77 257.301C1088.39 260.683 1085.42 263.613 1082.01 265.953C1080.37 279.123 1079.11 289.092 1078.27 295.576C1078.19 296.092 1078.24 296.618 1078.39 297.117C1078.54 297.615 1078.8 298.075 1079.14 298.464L1079.15 298.467ZM1164.1 225.205C1162.82 223.703 1161.31 222.411 1159.63 221.377C1150.37 231.231 1138.75 239.052 1125.21 244.615C1125.28 245.964 1125.43 247.307 1125.67 248.636C1126.65 248.418 1127.72 248.167 1128.76 247.906C1130.81 247.382 1132.96 247.335 1135.04 247.767C1137.12 248.2 1139.07 249.102 1140.75 250.404C1149.96 257.685 1160.37 260.474 1169.56 262.937C1174.27 264.2 1178.72 265.394 1182.42 267.077C1182.51 267.119 1182.6 267.165 1182.69 267.215C1184.52 268.236 1189.72 267.683 1193.17 264.831C1195.59 262.837 1196.3 260.485 1195.35 257.643C1194.66 255.574 1190.42 255.008 1188.14 254.705C1186.18 254.444 1184.77 254.255 1183.65 253.084C1181.54 250.88 1179.08 247.031 1175.98 242.156C1172.43 236.585 1168.41 230.273 1164.1 225.205ZM1118.5 250.19C1118.32 249.226 1118.18 248.257 1118.07 247.284C1113.06 248.967 1107.95 250.343 1102.77 251.402C1108.04 251.574 1113.32 251.168 1118.5 250.19ZM1057.99 238.471C1057.51 242.298 1060.77 244.202 1061.35 246.541C1063.27 254.359 1066.34 259.574 1069.99 261.224C1071.95 262.109 1074.11 261.951 1076.41 260.754C1080.89 258.424 1084.22 254 1085.81 251.571C1087.32 249.265 1089.78 246.133 1093.69 245.556C1120.32 241.63 1142.09 230.638 1156.63 213.767C1163.86 205.346 1169.6 195.741 1173.58 185.375C1165.9 187.631 1157.94 188.8 1149.94 188.847C1144.38 188.846 1138.84 188.231 1133.42 187.012C1132.02 194.865 1130.89 200.007 1129.03 202.898C1117.99 220.017 1098.62 224.719 1088.21 227.246C1085.96 227.796 1078.24 230.223 1075.76 230.098C1064.33 229.147 1058.6 233.605 1057.99 238.471H1057.99ZM1053.63 130.904C1053.49 134.077 1052.42 138.057 1051.06 143.095C1046.7 159.312 1039.69 185.427 1059.67 209.2C1059.38 204.465 1059.26 199.907 1059.38 196.655C1059.96 180.711 1064.51 155.67 1084.9 137.167C1079.06 135.027 1075.86 129.42 1073.36 126.256C1071.98 124.499 1066.63 121.199 1064.5 120.26C1062.79 119.51 1061.31 118.861 1060.21 118.243C1059.2 117.652 1058.32 116.866 1057.62 115.931C1056.92 114.996 1056.42 113.931 1056.14 112.798C1055.82 111.721 1055.73 110.592 1055.87 109.479C1056 108.366 1056.36 107.292 1056.92 106.322C1057.75 104.948 1057.96 99.6267 1055.23 96.0116C1054.32 94.8151 1053.33 93.6596 1052.37 92.5426C1048.34 87.8636 1043.83 82.6094 1045.15 73.1683C1044.48 72.7568 1043.82 72.3234 1043.16 71.8544C1042.37 71.2922 1041.83 70.4376 1041.66 69.4786C1041.5 68.5195 1041.72 67.5346 1042.29 66.7405C1042.85 65.9463 1043.7 65.4081 1044.66 65.244C1045.62 65.08 1046.61 65.3037 1047.4 65.8659C1057.5 73.0191 1067.21 71.6618 1077.49 70.2245C1088.53 68.6825 1099.93 67.0893 1110.62 76.8917C1112.11 76.452 1113.67 76.2399 1115.23 76.2625C1115.26 76.2625 1115.29 76.268 1115.32 76.2686C1117.59 70.2384 1121.21 64.8044 1125.89 60.3785C1130.58 55.9526 1136.21 52.6509 1142.35 50.7236C1141.21 49.3174 1140.05 47.8501 1138.85 46.3357C1132.42 38.1706 1124.42 28.0099 1111.32 19.8919C1096.88 10.9436 1074.82 13.2565 1057.68 25.5167C1043.06 35.9714 1036.28 50.671 1039.53 64.84C1039.81 66.048 1039.82 67.3054 1039.54 68.515C1038.88 71.3659 1036.95 81.3829 1040 90.5861C1041.92 96.1832 1044.25 101.636 1046.95 106.902C1050.76 114.685 1054.05 121.409 1053.63 130.904H1053.63Z" fill="#17505C"/>
<path d="M1071.2 96.9819C1071.34 96.9821 1071.48 96.9739 1071.62 96.9575C1074.02 96.6578 1076.24 95.5241 1077.89 93.7546C1079.54 91.9851 1080.51 89.6925 1080.64 87.278C1080.67 86.7975 1080.61 86.3148 1080.46 85.8575C1080.31 85.4003 1080.07 84.9773 1079.75 84.6129C1079.44 84.2484 1079.06 83.9496 1078.62 83.7335C1078.19 83.5173 1077.73 83.3881 1077.24 83.3532C1076.27 83.2826 1075.32 83.6005 1074.58 84.2368C1073.84 84.8731 1073.39 85.7757 1073.32 86.7461C1073.32 87.4584 1073.07 88.1477 1072.6 88.6855C1072.13 89.2234 1071.49 89.573 1070.78 89.6691C1069.85 89.7757 1069 90.2342 1068.39 90.9506C1067.79 91.667 1067.48 92.587 1067.54 93.5221C1067.59 94.4572 1068 95.3365 1068.68 95.9798C1069.36 96.6231 1070.26 96.9816 1071.2 96.9819H1071.2Z" fill="#17505C"/>
<path d="M1058.14 82.8002C1058.99 82.8015 1059.81 82.5077 1060.46 81.9693C1061.14 81.4319 1063.55 79.8997 1065.55 80.0514C1066.03 80.0888 1066.52 80.0312 1066.97 79.882C1067.43 79.7328 1067.86 79.4948 1068.22 79.1816C1068.96 78.5492 1069.42 77.6489 1069.49 76.6789C1069.57 75.709 1069.26 74.7487 1068.62 74.0094C1067.99 73.2701 1067.09 72.8123 1066.12 72.7367C1060.82 72.3265 1056.31 75.8872 1055.81 76.295C1055.23 76.7747 1054.8 77.4235 1054.6 78.1527C1054.4 78.8818 1054.43 79.6556 1054.68 80.3679C1054.94 81.0803 1055.41 81.6964 1056.03 82.1318C1056.64 82.5672 1057.38 82.8007 1058.14 82.8002Z" fill="#17505C"/>
<path d="M1173.28 88.3729C1173.96 87.6761 1174.89 87.2775 1175.86 87.2648C1176.84 87.252 1177.77 87.6262 1178.47 88.305C1178.81 88.6395 1179.25 88.86 1179.73 88.9366C1180.2 89.0131 1180.68 88.942 1181.12 88.7328C1181.55 88.5237 1181.9 88.1867 1182.14 87.7677C1182.37 87.3488 1182.47 86.8682 1182.42 86.3914C1182.36 85.8191 1181.08 82.5396 1180.85 81.5064C1180.44 79.6455 1180.49 77.7147 1180.98 75.8755C1181.48 74.0363 1182.4 72.3422 1183.69 70.9348C1183.52 70.6799 1180.24 63.4191 1180.12 63.1219C1179.12 60.6929 1178.21 58.0474 1178.3 55.1378C1178.41 51.2934 1180.38 47.9418 1183.42 46.3907C1187.44 44.3443 1192.85 45.97 1195.5 50.0131C1197.27 52.8965 1197.83 56.3611 1197.07 59.6578C1197.05 59.7646 1197.05 59.8755 1197.09 59.979C1197.12 60.0825 1197.19 60.1747 1197.27 60.2463C1197.35 60.3178 1197.45 60.3659 1197.56 60.3856C1197.66 60.4053 1197.78 60.396 1197.88 60.3584C1201.5 59.0586 1204.86 59.0647 1207.66 60.3872C1209.33 61.2108 1210.75 62.4772 1211.76 64.0492C1212.77 65.6213 1213.33 67.4392 1213.38 69.3061C1213.39 71.1425 1212.91 72.9495 1212.01 74.5467C1211.1 76.1438 1209.79 77.4752 1208.21 78.4078C1206.41 79.4304 1204.37 79.9552 1202.29 79.9284C1201.01 79.9232 1199.74 79.7543 1198.5 79.4258C1195.91 78.6457 1193.44 77.5265 1191.14 76.0974C1190.77 75.8877 1190.26 75.6407 1189.67 75.3546C1189.01 75.8866 1188.51 76.5873 1188.21 77.3824C1187.92 78.1776 1187.85 79.0376 1188 79.8715C1188.16 80.4678 1188.36 81.0524 1188.6 81.6213C1189.15 82.8973 1189.53 84.2436 1189.72 85.6222C1189.9 87.5964 1189.49 89.5806 1188.52 91.3139C1187.56 93.0472 1186.1 94.4485 1184.32 95.3335C1183.02 95.958 1181.6 96.2799 1180.16 96.2751C1177.62 96.286 1175.18 95.3128 1173.35 93.5605C1173.01 93.2245 1172.73 92.8238 1172.54 92.3812C1172.35 91.9387 1172.25 91.463 1172.24 90.9812C1172.24 90.4995 1172.33 90.0212 1172.5 89.5737C1172.68 89.1261 1172.95 88.7181 1173.28 88.3729ZM1195.81 70.3082C1197.24 71.1671 1198.77 71.8448 1200.36 72.3258C1201.73 72.7725 1203.22 72.6796 1204.52 72.0659C1205.43 71.5346 1206.22 70.4335 1206.04 69.4284C1205.35 65.6573 1200.48 67.1883 1199.65 67.5392C1198.75 67.9213 1196.19 69.2609 1195.83 69.4443C1195.75 69.4842 1195.68 69.545 1195.64 69.6202C1195.59 69.6953 1195.56 69.7819 1195.56 69.8707C1195.56 69.9595 1195.58 70.0472 1195.63 70.1242C1195.67 70.2013 1195.73 70.2649 1195.81 70.3082ZM1189.5 53.9768C1187.59 52.0283 1185.84 53.7475 1185.63 55.3518C1185.34 57.5766 1186.31 59.8547 1187.39 61.9236C1187.44 62.0152 1187.51 62.092 1187.6 62.146C1187.69 62.2 1187.79 62.229 1187.89 62.2301C1187.99 62.2312 1188.1 62.2042 1188.19 62.1521C1188.28 62.0999 1188.35 62.0246 1188.4 61.934C1188.92 61.0288 1189.34 60.0729 1189.66 59.0812C1190.26 57.1297 1190.52 55.0137 1189.5 53.9786V53.9768Z" fill="#17505C"/>
</g>
<defs>
<clipPath id="clip0_282_5320">
<rect width="1288" height="280" rx="16" fill="white"/>
</clipPath>
</defs>
</svg>
